<?xml version="1.0" encoding="UTF-8"?>
<!-- Generator: Adobe Illustrator 16.0.0, SVG Export Plug-In . SVG Version: 6.00 Build 0)  -->
<!DOCTYPE svg PUBLIC "-//W3C//DTD SVG 1.1//EN" "http://www.w3.org/Graphics/SVG/1.1/DTD/svg11.dtd">
<svg version="1.1" id="Layer_1" xmlns="http://www.w3.org/2000/svg" xmlns:xlink="http://www.w3.org/1999/xlink" x="0px" y="0px" width="394px" height="44.167px" viewBox="0 0 394 44.167" enable-background="new 0 0 394 44.167" xml:space="preserve">
<g id="skip-next_5_">
	<path d="M102.595,37.083l23.896-15l-18.605-15L102.595,37.083z M132.886,7.082l-5.29,30h4.999l5.29-30H132.886L132.886,7.082z"/>
</g>
<g id="skip-next_4_">
	<path d="M56.543,7.082l-23.896,15l18.606,15L56.543,7.082z M26.251,37.083l5.29-30h-5l-5.29,30H26.251z"/>
</g>
<g id="play-arrow_2_">
	<polygon points="192.002,7.082 186.713,37.083 212.93,22.082  "/>
</g>
<g id="pause_2_">
	<path d="M261.88,37.083h8.572l5.289-30h-8.571L261.88,37.083z M284.311,7.083l-5.289,30h8.572l5.291-30H284.311z"/>
</g>
<g id="favorite">
	<g>
		<path fill="#F84E50" d="M357.112,37.083L354.83,34.8c-8.479-7.502-14.022-12.554-14.022-18.75c0-5.054,3.913-8.968,8.969-8.968    c2.771,0,5.543,1.306,7.337,3.425c1.794-2.119,4.564-3.425,7.337-3.425c5.055,0,8.968,3.914,8.968,8.968    c0,6.196-5.543,11.249-14.021,18.75L357.112,37.083z"/>
	</g>
	<g>
		<path d="M357.112,37.083L354.83,34.8c-8.479-7.502-14.022-12.554-14.022-18.75c0-5.054,3.913-8.968,8.969-8.968    c2.771,0,5.543,1.306,7.337,3.425c1.794-2.119,4.564-3.425,7.337-3.425c5.055,0,8.968,3.914,8.968,8.968    c0,6.196-5.543,11.249-14.021,18.75L357.112,37.083z"/>
	</g>
</g>
</svg>